<?xml version="1.0" encoding="UTF-8" standalone="no"?>
<!DOCTYPE svg PUBLIC "-//W3C//DTD SVG 1.1//EN"
 "http://www.w3.org/Graphics/SVG/1.1/DTD/svg11.dtd">
<!-- Generated by graphviz version 2.40.1 (20161225.0304)
 -->
<!-- Title: %3 Pages: 1 -->
<svg width="909pt" height="646pt"
 viewBox="0.00 0.00 908.59 646.00" xmlns="http://www.w3.org/2000/svg" xmlns:xlink="http://www.w3.org/1999/xlink">
<g id="graph0" class="graph" transform="scale(1 1) rotate(0) translate(4 642)">
<title>%3</title>
<polygon fill="#ffffff" stroke="transparent" points="-4,4 -4,-642 904.5942,-642 904.5942,4 -4,4"/>
<text text-anchor="middle" x="450.2971" y="-622.8" font-family="Times,serif" font-size="14.00" fill="#000000">YOLO</text>
<g id="clust1" class="cluster">
<title>cluster_.94</title>
<polygon fill="none" stroke="#000000" points="8,-208 8,-427 580,-427 580,-208 8,-208"/>
<text text-anchor="middle" x="294" y="-411.8" font-family="Times,serif" font-size="14.00" fill="#000000">head (YoloHead)</text>
</g>
<!-- inp_inp -->
<g id="node1" class="node">
<title>inp_inp</title>
<ellipse fill="none" stroke="#000000" cx="692" cy="-597" rx="44.6926" ry="18"/>
<text text-anchor="middle" x="692" y="-593.3" font-family="Times,serif" font-size="14.00" fill="#000000">inp_inp</text>
</g>
<!-- .92 -->
<g id="node2" class="node">
<title>.92</title>
<polygon fill="none" stroke="#000000" points="847.5,-543 536.5,-543 536.5,-507 847.5,-507 847.5,-543"/>
<text text-anchor="middle" x="692" y="-521.3" font-family="Times,serif" font-size="14.00" fill="#000000">transform (GeneralizedRCNNTransform)</text>
</g>
<!-- inp_inp&#45;&gt;.92 -->
<g id="edge1" class="edge">
<title>inp_inp&#45;&gt;.92</title>
<path fill="none" stroke="#000000" d="M692,-578.8314C692,-571.131 692,-561.9743 692,-553.4166"/>
<polygon fill="#000000" stroke="#000000" points="695.5001,-553.4132 692,-543.4133 688.5001,-553.4133 695.5001,-553.4132"/>
</g>
<!-- .93 -->
<g id="node3" class="node">
<title>.93</title>
<polygon fill="none" stroke="#000000" points="585,-471 385,-471 385,-435 585,-435 585,-471"/>
<text text-anchor="middle" x="485" y="-449.3" font-family="Times,serif" font-size="14.00" fill="#000000">backbone (YoloBackbone)</text>
</g>
<!-- .92&#45;&gt;.93 -->
<g id="edge2" class="edge">
<title>.92&#45;&gt;.93</title>
<path fill="none" stroke="#000000" d="M640.0323,-506.9243C611.6112,-497.0387 576.2298,-484.7321 546.4464,-474.3726"/>
<polygon fill="#000000" stroke="#000000" points="547.5839,-471.0627 536.989,-471.0831 545.2842,-477.6742 547.5839,-471.0627"/>
</g>
<!-- inp_out_0 -->
<g id="node14" class="node">
<title>inp_out_0</title>
<path fill="none" stroke="#000000" d="M837,-108C837,-108 791,-108 791,-108 785,-108 779,-102 779,-96 779,-96 779,-84 779,-84 779,-78 785,-72 791,-72 791,-72 837,-72 837,-72 843,-72 849,-78 849,-84 849,-84 849,-96 849,-96 849,-102 843,-108 837,-108"/>
<text text-anchor="middle" x="814" y="-86.3" font-family="Times,serif" font-size="14.00" fill="#000000">mul div</text>
</g>
<!-- .92&#45;&gt;inp_out_0 -->
<g id="edge15" class="edge">
<title>.92&#45;&gt;inp_out_0</title>
<path fill="none" stroke="#000000" d="M762.1293,-506.9074C822.514,-486.6052 900,-447.0923 900,-378 900,-378 900,-378 900,-234 900,-193.1184 902.3767,-178.8475 881,-144 873.9034,-132.4315 863.4065,-122.2734 852.8161,-113.9815"/>
<polygon fill="#000000" stroke="#000000" points="854.8736,-111.15 844.7541,-108.012 850.708,-116.7757 854.8736,-111.15"/>
</g>
<!-- head.inp_1 -->
<g id="node4" class="node">
<title>head.inp_1</title>
<ellipse fill="none" stroke="#000000" cx="485" cy="-378" rx="61.99" ry="18"/>
<text text-anchor="middle" x="485" y="-374.3" font-family="Times,serif" font-size="14.00" fill="#000000">head.inp_1</text>
</g>
<!-- .93&#45;&gt;head.inp_1 -->
<g id="edge3" class="edge">
<title>.93&#45;&gt;head.inp_1</title>
<path fill="none" stroke="#000000" d="M485,-434.8446C485,-426.3401 485,-416.0076 485,-406.4964"/>
<polygon fill="#000000" stroke="#000000" points="488.5001,-406.2481 485,-396.2482 481.5001,-406.2482 488.5001,-406.2481"/>
</g>
<!-- head.inp_2 -->
<g id="node5" class="node">
<title>head.inp_2</title>
<ellipse fill="none" stroke="#000000" cx="319" cy="-378" rx="61.99" ry="18"/>
<text text-anchor="middle" x="319" y="-374.3" font-family="Times,serif" font-size="14.00" fill="#000000">head.inp_2</text>
</g>
<!-- .93&#45;&gt;head.inp_2 -->
<g id="edge4" class="edge">
<title>.93&#45;&gt;head.inp_2</title>
<path fill="none" stroke="#000000" d="M433.1238,-434.8609C426.6357,-432.3413 420.1302,-429.6908 414,-427 394.7875,-418.5669 374.0152,-408.0251 356.8083,-398.8821"/>
<polygon fill="#000000" stroke="#000000" points="358.1151,-395.6114 347.6483,-393.9688 354.8063,-401.78 358.1151,-395.6114"/>
</g>
<!-- head.inp_3 -->
<g id="node6" class="node">
<title>head.inp_3</title>
<ellipse fill="none" stroke="#000000" cx="128" cy="-378" rx="61.99" ry="18"/>
<text text-anchor="middle" x="128" y="-374.3" font-family="Times,serif" font-size="14.00" fill="#000000">head.inp_3</text>
</g>
<!-- .93&#45;&gt;head.inp_3 -->
<g id="edge5" class="edge">
<title>.93&#45;&gt;head.inp_3</title>
<path fill="none" stroke="#000000" d="M384.829,-444.8003C332.2346,-439.9386 273.5273,-433.4766 248,-427 220.7075,-420.0756 191.427,-408.2142 168.6219,-397.8961"/>
<polygon fill="#000000" stroke="#000000" points="169.8165,-394.5929 159.2695,-393.5874 166.8874,-400.9506 169.8165,-394.5929"/>
</g>
<!-- .95 -->
<g id="node11" class="node">
<title>.95</title>
<polygon fill="none" stroke="#000000" points="872,-252 588,-252 588,-216 872,-216 872,-252"/>
<text text-anchor="middle" x="730" y="-230.3" font-family="Times,serif" font-size="14.00" fill="#000000">anchor_generator (AnchorGenerator)</text>
</g>
<!-- .93&#45;&gt;.95 -->
<g id="edge12" class="edge">
<title>.93&#45;&gt;.95</title>
<path fill="none" stroke="#000000" d="M569.8827,-434.9222C574.819,-432.5939 579.5702,-429.966 584,-427 648.1294,-384.0623 695.3984,-303.3741 716.9849,-261.218"/>
<polygon fill="#000000" stroke="#000000" points="720.2014,-262.612 721.5577,-252.1043 713.9447,-259.4727 720.2014,-262.612"/>
</g>
<!-- head..109 -->
<g id="node7" class="node">
<title>head..109</title>
<polygon fill="none" stroke="#000000" points="571.5,-324 398.5,-324 398.5,-288 571.5,-288 571.5,-324"/>
<text text-anchor="middle" x="485" y="-302.3" font-family="Times,serif" font-size="14.00" fill="#000000">head.head.0 (Conv2d)</text>
</g>
<!-- head.inp_1&#45;&gt;head..109 -->
<g id="edge6" class="edge">
<title>head.inp_1&#45;&gt;head..109</title>
<path fill="none" stroke="#000000" d="M485,-359.8314C485,-352.131 485,-342.9743 485,-334.4166"/>
<polygon fill="#000000" stroke="#000000" points="488.5001,-334.4132 485,-324.4133 481.5001,-334.4133 488.5001,-334.4132"/>
</g>
<!-- head..110 -->
<g id="node8" class="node">
<title>head..110</title>
<polygon fill="none" stroke="#000000" points="380.5,-324 207.5,-324 207.5,-288 380.5,-288 380.5,-324"/>
<text text-anchor="middle" x="294" y="-302.3" font-family="Times,serif" font-size="14.00" fill="#000000">head.head.1 (Conv2d)</text>
</g>
<!-- head.inp_2&#45;&gt;head..110 -->
<g id="edge7" class="edge">
<title>head.inp_2&#45;&gt;head..110</title>
<path fill="none" stroke="#000000" d="M312.6914,-359.8314C309.9883,-352.0463 306.7684,-342.7729 303.769,-334.1347"/>
<polygon fill="#000000" stroke="#000000" points="306.98,-332.7119 300.3935,-324.4133 300.3673,-335.0081 306.98,-332.7119"/>
</g>
<!-- head..111 -->
<g id="node9" class="node">
<title>head..111</title>
<polygon fill="none" stroke="#000000" points="189.5,-324 16.5,-324 16.5,-288 189.5,-288 189.5,-324"/>
<text text-anchor="middle" x="103" y="-302.3" font-family="Times,serif" font-size="14.00" fill="#000000">head.head.2 (Conv2d)</text>
</g>
<!-- head.inp_3&#45;&gt;head..111 -->
<g id="edge8" class="edge">
<title>head.inp_3&#45;&gt;head..111</title>
<path fill="none" stroke="#000000" d="M121.6914,-359.8314C118.9883,-352.0463 115.7684,-342.7729 112.769,-334.1347"/>
<polygon fill="#000000" stroke="#000000" points="115.98,-332.7119 109.3935,-324.4133 109.3673,-335.0081 115.98,-332.7119"/>
</g>
<!-- head.out_0 -->
<g id="node10" class="node">
<title>head.out_0</title>
<ellipse fill="none" stroke="#000000" cx="389" cy="-234" rx="61.99" ry="18"/>
<text text-anchor="middle" x="389" y="-230.3" font-family="Times,serif" font-size="14.00" fill="#000000">head.out_0</text>
</g>
<!-- head..109&#45;&gt;head.out_0 -->
<g id="edge10" class="edge">
<title>head..109&#45;&gt;head.out_0</title>
<path fill="none" stroke="#000000" d="M460.7751,-287.8314C448.3816,-278.5362 433.1589,-267.1192 419.9267,-257.195"/>
<polygon fill="#000000" stroke="#000000" points="421.6684,-254.1263 411.5684,-250.9263 417.4684,-259.7263 421.6684,-254.1263"/>
</g>
<!-- head..110&#45;&gt;head.out_0 -->
<g id="edge11" class="edge">
<title>head..110&#45;&gt;head.out_0</title>
<path fill="none" stroke="#000000" d="M317.9725,-287.8314C330.237,-278.5362 345.301,-267.1192 358.3955,-257.195"/>
<polygon fill="#000000" stroke="#000000" points="360.8111,-259.7559 366.6667,-250.9263 356.5829,-254.1771 360.8111,-259.7559"/>
</g>
<!-- head..111&#45;&gt;head.out_0 -->
<g id="edge9" class="edge">
<title>head..111&#45;&gt;head.out_0</title>
<path fill="none" stroke="#000000" d="M174.8007,-287.9243C223.4116,-275.6866 286.7597,-259.7388 331.9284,-248.3677"/>
<polygon fill="#000000" stroke="#000000" points="333.0076,-251.7053 341.8506,-245.8698 331.2986,-244.9171 333.0076,-251.7053"/>
</g>
<!-- .96 -->
<g id="node12" class="node">
<title>.96</title>
<polygon fill="none" stroke="#000000" points="871.5,-180 584.5,-180 584.5,-144 871.5,-144 871.5,-180"/>
<text text-anchor="middle" x="728" y="-158.3" font-family="Times,serif" font-size="14.00" fill="#000000">postprocess_detections (PostProcess)</text>
</g>
<!-- head.out_0&#45;&gt;.96 -->
<g id="edge13" class="edge">
<title>head.out_0&#45;&gt;.96</title>
<path fill="none" stroke="#000000" d="M439.0206,-223.3762C489.9818,-212.5525 570.2606,-195.5022 633.2854,-182.1164"/>
<polygon fill="#000000" stroke="#000000" points="634.1905,-185.5023 643.2452,-180.001 632.7362,-178.655 634.1905,-185.5023"/>
</g>
<!-- .95&#45;&gt;.96 -->
<g id="edge14" class="edge">
<title>.95&#45;&gt;.96</title>
<path fill="none" stroke="#000000" d="M729.4953,-215.8314C729.2814,-208.131 729.0271,-198.9743 728.7894,-190.4166"/>
<polygon fill="#000000" stroke="#000000" points="732.2879,-190.3122 728.5115,-180.4133 725.2906,-190.5066 732.2879,-190.3122"/>
</g>
<!-- .96&#45;&gt;inp_out_0 -->
<g id="edge16" class="edge">
<title>.96&#45;&gt;inp_out_0</title>
<path fill="none" stroke="#000000" d="M749.7014,-143.8314C760.1921,-135.0485 772.9455,-124.3712 784.3194,-114.8489"/>
<polygon fill="#000000" stroke="#000000" points="786.8847,-117.2659 792.3055,-108.1628 782.3911,-111.8986 786.8847,-117.2659"/>
</g>
<!-- out_0 -->
<g id="node13" class="node">
<title>out_0</title>
<ellipse fill="none" stroke="#000000" cx="814" cy="-18" rx="36.2938" ry="18"/>
<text text-anchor="middle" x="814" y="-14.3" font-family="Times,serif" font-size="14.00" fill="#000000">out_0</text>
</g>
<!-- inp_out_0&#45;&gt;out_0 -->
<g id="edge17" class="edge">
<title>inp_out_0&#45;&gt;out_0</title>
<path fill="none" stroke="#000000" d="M814,-71.8314C814,-64.131 814,-54.9743 814,-46.4166"/>
<polygon fill="#000000" stroke="#000000" points="817.5001,-46.4132 814,-36.4133 810.5001,-46.4133 817.5001,-46.4132"/>
</g>
</g>
</svg>
