<?xml version="1.0" encoding="UTF-8" standalone="no"?>
<!DOCTYPE svg PUBLIC "-//W3C//DTD SVG 1.1//EN"
 "http://www.w3.org/Graphics/SVG/1.1/DTD/svg11.dtd">
<!-- Generated by graphviz version 2.40.1 (20161225.0304)
 -->
<!-- Title: %3 Pages: 1 -->
<svg width="504pt" height="359pt"
 viewBox="0.00 0.00 504.00 359.47" xmlns="http://www.w3.org/2000/svg" xmlns:xlink="http://www.w3.org/1999/xlink">
<g id="graph0" class="graph" transform="scale(.4533 .4533) rotate(0) translate(4 789)">
<title>%3</title>
<polygon fill="#ffffff" stroke="transparent" points="-4,4 -4,-789 1107.8418,-789 1107.8418,4 -4,4"/>
<text text-anchor="middle" x="551.9209" y="-769.8" font-family="Times,serif" font-size="14.00" fill="#000000">YOLOModule</text>
<g id="clust1" class="cluster">
<title>cluster_.73</title>
<polygon fill="none" stroke="#000000" points="8,-136 8,-646 1078,-646 1078,-136 8,-136"/>
<text text-anchor="middle" x="543" y="-630.8" font-family="Times,serif" font-size="14.00" fill="#000000">model (YOLO)</text>
</g>
<g id="clust2" class="cluster">
<title>cluster_model..32</title>
<polygon fill="none" stroke="#000000" points="16,-280 16,-499 730,-499 730,-280 16,-280"/>
<text text-anchor="middle" x="373" y="-483.8" font-family="Times,serif" font-size="14.00" fill="#000000">model.head (YOLOHead)</text>
</g>
<!-- inp_inp -->
<g id="node1" class="node">
<title>inp_inp</title>
<ellipse fill="none" stroke="#000000" cx="976" cy="-744" rx="44.6926" ry="18"/>
<text text-anchor="middle" x="976" y="-740.3" font-family="Times,serif" font-size="14.00" fill="#000000">inp_inp</text>
</g>
<!-- .72 -->
<g id="node2" class="node">
<title>.72</title>
<polygon fill="none" stroke="#000000" points="1086.5,-690 865.5,-690 865.5,-654 1086.5,-654 1086.5,-690"/>
<text text-anchor="middle" x="976" y="-668.3" font-family="Times,serif" font-size="14.00" fill="#000000">transform (YOLOTransform)</text>
</g>
<!-- inp_inp&#45;&gt;.72 -->
<g id="edge1" class="edge">
<title>inp_inp&#45;&gt;.72</title>
<path fill="none" stroke="#000000" d="M976,-725.8314C976,-718.131 976,-708.9743 976,-700.4166"/>
<polygon fill="#000000" stroke="#000000" points="979.5001,-700.4132 976,-690.4133 972.5001,-700.4133 979.5001,-700.4132"/>
</g>
<!-- model.inp_1 -->
<g id="node3" class="node">
<title>model.inp_1</title>
<ellipse fill="none" stroke="#000000" cx="733" cy="-597" rx="67.6881" ry="18"/>
<text text-anchor="middle" x="733" y="-593.3" font-family="Times,serif" font-size="14.00" fill="#000000">model.inp_1</text>
</g>
<!-- .72&#45;&gt;model.inp_1 -->
<g id="edge2" class="edge">
<title>.72&#45;&gt;model.inp_1</title>
<path fill="none" stroke="#000000" d="M917.4862,-653.9402C877.9089,-641.725 826.0072,-625.7059 787.3389,-613.7713"/>
<polygon fill="#000000" stroke="#000000" points="787.8953,-610.2801 777.3078,-610.6752 785.8308,-616.9688 787.8953,-610.2801"/>
</g>
<!-- inp_out_0 -->
<g id="node16" class="node">
<title>inp_out_0</title>
<path fill="none" stroke="#000000" d="M1072,-108C1072,-108 1026,-108 1026,-108 1020,-108 1014,-102 1014,-96 1014,-96 1014,-84 1014,-84 1014,-78 1020,-72 1026,-72 1026,-72 1072,-72 1072,-72 1078,-72 1084,-78 1084,-84 1084,-84 1084,-96 1084,-96 1084,-102 1078,-108 1072,-108"/>
<text text-anchor="middle" x="1049" y="-86.3" font-family="Times,serif" font-size="14.00" fill="#000000">div mul</text>
</g>
<!-- .72&#45;&gt;inp_out_0 -->
<g id="edge18" class="edge">
<title>.72&#45;&gt;inp_out_0</title>
<path fill="none" stroke="#000000" d="M1069.2276,-653.9073C1074.9259,-651.5251 1079.4071,-648.8923 1082,-646 1118.2099,-605.6087 1098,-579.2459 1098,-525 1098,-525 1098,-525 1098,-234 1098,-189.8678 1098.863,-176.7835 1082,-136 1079.2244,-129.2872 1075.301,-122.6165 1071.1239,-116.523"/>
<polygon fill="#000000" stroke="#000000" points="1073.6622,-114.0656 1064.9265,-108.0706 1068.017,-118.2047 1073.6622,-114.0656"/>
</g>
<!-- model..31 -->
<g id="node4" class="node">
<title>model..31</title>
<polygon fill="none" stroke="#000000" points="754.5,-543 469.5,-543 469.5,-507 754.5,-507 754.5,-543"/>
<text text-anchor="middle" x="612" y="-521.3" font-family="Times,serif" font-size="14.00" fill="#000000">model.backbone (BackboneWithPAN)</text>
</g>
<!-- model.inp_1&#45;&gt;model..31 -->
<g id="edge3" class="edge">
<title>model.inp_1&#45;&gt;model..31</title>
<path fill="none" stroke="#000000" d="M705.2402,-580.4817C689.3168,-571.0067 669.0635,-558.9552 651.504,-548.5065"/>
<polygon fill="#000000" stroke="#000000" points="652.9877,-545.3166 642.6043,-543.2108 649.4082,-551.3322 652.9877,-545.3166"/>
</g>
<!-- model.head.inp_1 -->
<g id="node5" class="node">
<title>model.head.inp_1</title>
<ellipse fill="none" stroke="#000000" cx="612" cy="-450" rx="92.8835" ry="18"/>
<text text-anchor="middle" x="612" y="-446.3" font-family="Times,serif" font-size="14.00" fill="#000000">model.head.inp_1</text>
</g>
<!-- model..31&#45;&gt;model.head.inp_1 -->
<g id="edge4" class="edge">
<title>model..31&#45;&gt;model.head.inp_1</title>
<path fill="none" stroke="#000000" d="M612,-506.8446C612,-498.3401 612,-488.0076 612,-478.4964"/>
<polygon fill="#000000" stroke="#000000" points="615.5001,-478.2481 612,-468.2482 608.5001,-478.2482 615.5001,-478.2481"/>
</g>
<!-- model.head.inp_2 -->
<g id="node6" class="node">
<title>model.head.inp_2</title>
<ellipse fill="none" stroke="#000000" cx="391" cy="-450" rx="92.8835" ry="18"/>
<text text-anchor="middle" x="391" y="-446.3" font-family="Times,serif" font-size="14.00" fill="#000000">model.head.inp_2</text>
</g>
<!-- model..31&#45;&gt;model.head.inp_2 -->
<g id="edge5" class="edge">
<title>model..31&#45;&gt;model.head.inp_2</title>
<path fill="none" stroke="#000000" d="M536.1775,-506.9428C527.2992,-504.4542 518.413,-501.7889 510,-499 485.4297,-490.855 458.726,-480.0465 436.8521,-470.6534"/>
<polygon fill="#000000" stroke="#000000" points="438.0482,-467.3572 427.4812,-466.5896 435.2631,-473.7794 438.0482,-467.3572"/>
</g>
<!-- model.head.inp_3 -->
<g id="node7" class="node">
<title>model.head.inp_3</title>
<ellipse fill="none" stroke="#000000" cx="160" cy="-450" rx="92.8835" ry="18"/>
<text text-anchor="middle" x="160" y="-446.3" font-family="Times,serif" font-size="14.00" fill="#000000">model.head.inp_3</text>
</g>
<!-- model..31&#45;&gt;model.head.inp_3 -->
<g id="edge6" class="edge">
<title>model..31&#45;&gt;model.head.inp_3</title>
<path fill="none" stroke="#000000" d="M469.2223,-517.4528C399.2527,-512.9571 322.8892,-506.6376 289,-499 260.2182,-492.5134 229.2747,-480.9281 204.91,-470.6507"/>
<polygon fill="#000000" stroke="#000000" points="206.1452,-467.3721 195.5755,-466.6421 203.383,-473.8041 206.1452,-467.3721"/>
</g>
<!-- model..33 -->
<g id="node12" class="node">
<title>model..33</title>
<polygon fill="none" stroke="#000000" points="1070,-324 738,-324 738,-288 1070,-288 1070,-324"/>
<text text-anchor="middle" x="904" y="-302.3" font-family="Times,serif" font-size="14.00" fill="#000000">model.anchor_generator (AnchorGenerator)</text>
</g>
<!-- model..31&#45;&gt;model..33 -->
<g id="edge13" class="edge">
<title>model..31&#45;&gt;model..33</title>
<path fill="none" stroke="#000000" d="M712.5064,-506.9738C721.6749,-504.4447 729.2801,-501.7612 734,-499 805.2744,-457.3038 862.2866,-375.1338 888.4482,-332.7241"/>
<polygon fill="#000000" stroke="#000000" points="891.5084,-334.4278 893.7023,-324.0626 885.5234,-330.7973 891.5084,-334.4278"/>
</g>
<!-- model.head..92 -->
<g id="node8" class="node">
<title>model.head..92</title>
<polygon fill="none" stroke="#000000" points="722.5,-396 501.5,-396 501.5,-360 722.5,-360 722.5,-396"/>
<text text-anchor="middle" x="612" y="-374.3" font-family="Times,serif" font-size="14.00" fill="#000000">model.head.head.0 (Conv2d)</text>
</g>
<!-- model.head.inp_1&#45;&gt;model.head..92 -->
<g id="edge7" class="edge">
<title>model.head.inp_1&#45;&gt;model.head..92</title>
<path fill="none" stroke="#000000" d="M612,-431.8314C612,-424.131 612,-414.9743 612,-406.4166"/>
<polygon fill="#000000" stroke="#000000" points="615.5001,-406.4132 612,-396.4133 608.5001,-406.4133 615.5001,-406.4132"/>
</g>
<!-- model.head..93 -->
<g id="node9" class="node">
<title>model.head..93</title>
<polygon fill="none" stroke="#000000" points="483.5,-396 262.5,-396 262.5,-360 483.5,-360 483.5,-396"/>
<text text-anchor="middle" x="373" y="-374.3" font-family="Times,serif" font-size="14.00" fill="#000000">model.head.head.1 (Conv2d)</text>
</g>
<!-- model.head.inp_2&#45;&gt;model.head..93 -->
<g id="edge8" class="edge">
<title>model.head.inp_2&#45;&gt;model.head..93</title>
<path fill="none" stroke="#000000" d="M386.4578,-431.8314C384.5116,-424.0463 382.1932,-414.7729 380.0337,-406.1347"/>
<polygon fill="#000000" stroke="#000000" points="383.4242,-405.2658 377.6033,-396.4133 376.6332,-406.9636 383.4242,-405.2658"/>
</g>
<!-- model.head..94 -->
<g id="node10" class="node">
<title>model.head..94</title>
<polygon fill="none" stroke="#000000" points="244.5,-396 23.5,-396 23.5,-360 244.5,-360 244.5,-396"/>
<text text-anchor="middle" x="134" y="-374.3" font-family="Times,serif" font-size="14.00" fill="#000000">model.head.head.2 (Conv2d)</text>
</g>
<!-- model.head.inp_3&#45;&gt;model.head..94 -->
<g id="edge9" class="edge">
<title>model.head.inp_3&#45;&gt;model.head..94</title>
<path fill="none" stroke="#000000" d="M153.4391,-431.8314C150.5973,-423.9617 147.2063,-414.5712 144.0581,-405.8533"/>
<polygon fill="#000000" stroke="#000000" points="147.3377,-404.63 140.6492,-396.4133 140.7538,-407.0076 147.3377,-404.63"/>
</g>
<!-- model.head.out_0 -->
<g id="node11" class="node">
<title>model.head.out_0</title>
<ellipse fill="none" stroke="#000000" cx="493" cy="-306" rx="92.8835" ry="18"/>
<text text-anchor="middle" x="493" y="-302.3" font-family="Times,serif" font-size="14.00" fill="#000000">model.head.out_0</text>
</g>
<!-- model.head..92&#45;&gt;model.head.out_0 -->
<g id="edge10" class="edge">
<title>model.head..92&#45;&gt;model.head.out_0</title>
<path fill="none" stroke="#000000" d="M581.9713,-359.8314C566.2857,-350.3409 546.9443,-338.6386 530.3058,-328.5716"/>
<polygon fill="#000000" stroke="#000000" points="531.7483,-325.3536 521.3806,-323.1715 528.1246,-331.3427 531.7483,-325.3536"/>
</g>
<!-- model.head..93&#45;&gt;model.head.out_0 -->
<g id="edge11" class="edge">
<title>model.head..93&#45;&gt;model.head.out_0</title>
<path fill="none" stroke="#000000" d="M403.2811,-359.8314C419.0985,-350.3409 438.6024,-338.6386 455.3807,-328.5716"/>
<polygon fill="#000000" stroke="#000000" points="457.6067,-331.3177 464.3809,-323.1715 454.0052,-325.3152 457.6067,-331.3177"/>
</g>
<!-- model.head..94&#45;&gt;model.head.out_0 -->
<g id="edge12" class="edge">
<title>model.head..94&#45;&gt;model.head.out_0</title>
<path fill="none" stroke="#000000" d="M224.1275,-359.9243C284.084,-347.8996 361.901,-332.2928 418.3802,-320.9655"/>
<polygon fill="#000000" stroke="#000000" points="419.1977,-324.3714 428.3142,-318.9732 417.8211,-317.508 419.1977,-324.3714"/>
</g>
<!-- model..34 -->
<g id="node13" class="node">
<title>model..34</title>
<polygon fill="none" stroke="#000000" points="1034,-252 774,-252 774,-216 1034,-216 1034,-252"/>
<text text-anchor="middle" x="904" y="-230.3" font-family="Times,serif" font-size="14.00" fill="#000000">model.post_process (PostProcess)</text>
</g>
<!-- model.head.out_0&#45;&gt;model..34 -->
<g id="edge14" class="edge">
<title>model.head.out_0&#45;&gt;model..34</title>
<path fill="none" stroke="#000000" d="M544.5845,-290.9788C559.1843,-287.0536 575.1453,-283.0681 590,-280 646.5099,-268.3286 709.3363,-258.5079 763.8531,-250.9771"/>
<polygon fill="#000000" stroke="#000000" points="764.4994,-254.4214 773.9324,-249.5977 763.5502,-247.4861 764.4994,-254.4214"/>
</g>
<!-- model..33&#45;&gt;model..34 -->
<g id="edge15" class="edge">
<title>model..33&#45;&gt;model..34</title>
<path fill="none" stroke="#000000" d="M904,-287.8314C904,-280.131 904,-270.9743 904,-262.4166"/>
<polygon fill="#000000" stroke="#000000" points="907.5001,-262.4132 904,-252.4133 900.5001,-262.4133 907.5001,-262.4132"/>
</g>
<!-- model.out_0 -->
<g id="node14" class="node">
<title>model.out_0</title>
<ellipse fill="none" stroke="#000000" cx="952" cy="-162" rx="67.6881" ry="18"/>
<text text-anchor="middle" x="952" y="-158.3" font-family="Times,serif" font-size="14.00" fill="#000000">model.out_0</text>
</g>
<!-- model..34&#45;&gt;model.out_0 -->
<g id="edge16" class="edge">
<title>model..34&#45;&gt;model.out_0</title>
<path fill="none" stroke="#000000" d="M916.1124,-215.8314C921.6687,-207.497 928.3622,-197.4567 934.4559,-188.3162"/>
<polygon fill="#000000" stroke="#000000" points="937.4229,-190.1754 940.0577,-179.9134 931.5985,-186.2925 937.4229,-190.1754"/>
</g>
<!-- model.out_0&#45;&gt;inp_out_0 -->
<g id="edge17" class="edge">
<title>model.out_0&#45;&gt;inp_out_0</title>
<path fill="none" stroke="#000000" d="M974.9876,-144.937C987.3287,-135.7767 1002.7505,-124.3295 1016.3179,-114.2589"/>
<polygon fill="#000000" stroke="#000000" points="1018.538,-116.9698 1024.4817,-108.1992 1014.3659,-111.349 1018.538,-116.9698"/>
</g>
<!-- out_0 -->
<g id="node15" class="node">
<title>out_0</title>
<ellipse fill="none" stroke="#000000" cx="1049" cy="-18" rx="36.2938" ry="18"/>
<text text-anchor="middle" x="1049" y="-14.3" font-family="Times,serif" font-size="14.00" fill="#000000">out_0</text>
</g>
<!-- inp_out_0&#45;&gt;out_0 -->
<g id="edge19" class="edge">
<title>inp_out_0&#45;&gt;out_0</title>
<path fill="none" stroke="#000000" d="M1049,-71.8314C1049,-64.131 1049,-54.9743 1049,-46.4166"/>
<polygon fill="#000000" stroke="#000000" points="1052.5001,-46.4132 1049,-36.4133 1045.5001,-46.4133 1052.5001,-46.4132"/>
</g>
</g>
</svg>
