<?xml version="1.0" encoding="UTF-8" standalone="no"?>
<!DOCTYPE svg PUBLIC "-//W3C//DTD SVG 1.1//EN"
 "http://www.w3.org/Graphics/SVG/1.1/DTD/svg11.dtd">
<!-- Generated by graphviz version 2.49.3 (20211023.0002)
 -->
<!-- Pages: 1 -->
<svg width="576pt" height="368pt"
 viewBox="0.00 0.00 576.00 368.35" xmlns="http://www.w3.org/2000/svg" xmlns:xlink="http://www.w3.org/1999/xlink">
<g id="graph0" class="graph" transform="scale(0.38 0.38) rotate(0) translate(4 967)">
<polygon fill="white" stroke="transparent" points="-4,4 -4,-967 1514.36,-967 1514.36,4 -4,4"/>
<text text-anchor="middle" x="755.18" y="-947.8" font-family="Times,serif" font-size="14.00">YOLOv5</text>
<g id="clust1" class="cluster">
<title>cluster_.73</title>
<polygon fill="none" stroke="black" points="8,-136 8,-824 1486,-824 1486,-136 8,-136"/>
<text text-anchor="middle" x="747" y="-808.8" font-family="Times,serif" font-size="14.00">model (YOLO)</text>
</g>
<g id="clust2" class="cluster">
<title>cluster_model..34</title>
<polygon fill="none" stroke="black" points="16,-208 16,-605 1478,-605 1478,-208 16,-208"/>
<text text-anchor="middle" x="747" y="-589.8" font-family="Times,serif" font-size="14.00">model.post_process (PostProcess)</text>
</g>
<!-- input_x -->
<g id="node1" class="node">
<title>input_x</title>
<ellipse fill="none" stroke="black" cx="1406" cy="-922" rx="38.19" ry="18"/>
<text text-anchor="middle" x="1406" y="-918.3" font-family="Times,serif" font-size="14.00">input_x</text>
</g>
<!-- .72 -->
<g id="node2" class="node">
<title>.72</title>
<polygon fill="none" stroke="black" points="1496.5,-868 1315.5,-868 1315.5,-832 1496.5,-832 1496.5,-868"/>
<text text-anchor="middle" x="1406" y="-846.3" font-family="Times,serif" font-size="14.00">transform (YOLOTransform)</text>
</g>
<!-- input_x&#45;&gt;.72 -->
<g id="edge1" class="edge">
<title>input_x&#45;&gt;.72</title>
<path fill="none" stroke="black" d="M1406,-903.7C1406,-895.98 1406,-886.71 1406,-878.11"/>
<polygon fill="black" stroke="black" points="1409.5,-878.1 1406,-868.1 1402.5,-878.1 1409.5,-878.1"/>
</g>
<!-- model.input_1 -->
<g id="node3" class="node">
<title>model.input_1</title>
<ellipse fill="none" stroke="black" cx="1211" cy="-775" rx="63.89" ry="18"/>
<text text-anchor="middle" x="1211" y="-771.3" font-family="Times,serif" font-size="14.00">model.input_1</text>
</g>
<!-- .72&#45;&gt;model.input_1 -->
<g id="edge2" class="edge">
<title>.72&#45;&gt;model.input_1</title>
<path fill="none" stroke="black" d="M1360.28,-831.88C1329.4,-820.32 1288.76,-805.11 1257.68,-793.48"/>
<polygon fill="black" stroke="black" points="1258.54,-790.06 1247.95,-789.83 1256.09,-796.62 1258.54,-790.06"/>
</g>
<!-- input_output_0 -->
<g id="node21" class="node">
<title>input_output_0</title>
<path fill="none" stroke="black" d="M1481,-108C1481,-108 1413,-108 1413,-108 1407,-108 1401,-102 1401,-96 1401,-96 1401,-84 1401,-84 1401,-78 1407,-72 1413,-72 1413,-72 1481,-72 1481,-72 1487,-72 1493,-78 1493,-84 1493,-84 1493,-96 1493,-96 1493,-102 1487,-108 1481,-108"/>
<text text-anchor="middle" x="1447" y="-86.3" font-family="Times,serif" font-size="14.00">div mul stack</text>
</g>
<!-- .72&#45;&gt;input_output_0 -->
<g id="edge36" class="edge">
<title>.72&#45;&gt;input_output_0</title>
<path fill="none" stroke="black" d="M1481.78,-831.78C1484.78,-829.49 1487.55,-826.91 1490,-824 1524.54,-782.89 1504,-757.7 1504,-704 1504,-704 1504,-704 1504,-233 1504,-189.44 1509.06,-175.16 1490,-136 1486.41,-128.62 1481.16,-121.66 1475.56,-115.52"/>
<polygon fill="black" stroke="black" points="1477.88,-112.89 1468.38,-108.21 1472.89,-117.79 1477.88,-112.89"/>
</g>
<!-- model..31 -->
<g id="node4" class="node">
<title>model..31</title>
<polygon fill="none" stroke="black" points="1229,-721 997,-721 997,-685 1229,-685 1229,-721"/>
<text text-anchor="middle" x="1113" y="-699.3" font-family="Times,serif" font-size="14.00">model.backbone (BackboneWithPAN)</text>
</g>
<!-- model.input_1&#45;&gt;model..31 -->
<g id="edge3" class="edge">
<title>model.input_1&#45;&gt;model..31</title>
<path fill="none" stroke="black" d="M1188.76,-758.12C1175.95,-748.96 1159.61,-737.29 1145.39,-727.14"/>
<polygon fill="black" stroke="black" points="1147.03,-724.01 1136.86,-721.04 1142.96,-729.7 1147.03,-724.01"/>
</g>
<!-- model..32 -->
<g id="node5" class="node">
<title>model..32</title>
<polygon fill="none" stroke="black" points="584.5,-649 421.5,-649 421.5,-613 584.5,-613 584.5,-649"/>
<text text-anchor="middle" x="503" y="-627.3" font-family="Times,serif" font-size="14.00">model.head (YOLOHead)</text>
</g>
<!-- model..31&#45;&gt;model..32 -->
<g id="edge4" class="edge">
<title>model..31&#45;&gt;model..32</title>
<path fill="none" stroke="black" d="M996.83,-688.67C879.96,-675.26 702.1,-654.85 594.77,-642.53"/>
<polygon fill="black" stroke="black" points="594.94,-639.03 584.6,-641.36 594.14,-645.98 594.94,-639.03"/>
</g>
<!-- model..33 -->
<g id="node6" class="node">
<title>model..33</title>
<polygon fill="none" stroke="black" points="1245,-649 981,-649 981,-613 1245,-613 1245,-649"/>
<text text-anchor="middle" x="1113" y="-627.3" font-family="Times,serif" font-size="14.00">model.anchor_generator (AnchorGenerator)</text>
</g>
<!-- model..31&#45;&gt;model..33 -->
<g id="edge5" class="edge">
<title>model..31&#45;&gt;model..33</title>
<path fill="none" stroke="black" d="M1113,-684.7C1113,-676.98 1113,-667.71 1113,-659.11"/>
<polygon fill="black" stroke="black" points="1116.5,-659.1 1113,-649.1 1109.5,-659.1 1116.5,-659.1"/>
</g>
<!-- model.post_process.input_1 -->
<g id="node7" class="node">
<title>model.post_process.input_1</title>
<ellipse fill="none" stroke="black" cx="137" cy="-556" rx="113.18" ry="18"/>
<text text-anchor="middle" x="137" y="-552.3" font-family="Times,serif" font-size="14.00">model.post_process.input_1</text>
</g>
<!-- model..32&#45;&gt;model.post_process.input_1 -->
<g id="edge6" class="edge">
<title>model..32&#45;&gt;model.post_process.input_1</title>
<path fill="none" stroke="black" d="M421.28,-627.19C373.44,-624.17 312.17,-617.93 259,-605 232.1,-598.46 203.22,-587.3 180.32,-577.39"/>
<polygon fill="black" stroke="black" points="181.45,-574.06 170.89,-573.23 178.63,-580.47 181.45,-574.06"/>
</g>
<!-- model.post_process.input_2 -->
<g id="node8" class="node">
<title>model.post_process.input_2</title>
<ellipse fill="none" stroke="black" cx="625" cy="-556" rx="113.18" ry="18"/>
<text text-anchor="middle" x="625" y="-552.3" font-family="Times,serif" font-size="14.00">model.post_process.input_2</text>
</g>
<!-- model..32&#45;&gt;model.post_process.input_2 -->
<g id="edge7" class="edge">
<title>model..32&#45;&gt;model.post_process.input_2</title>
<path fill="none" stroke="black" d="M531.6,-612.88C548.67,-602.67 570.51,-589.61 588.77,-578.68"/>
<polygon fill="black" stroke="black" points="590.63,-581.64 597.42,-573.51 587.04,-575.64 590.63,-581.64"/>
</g>
<!-- model.post_process.input_3 -->
<g id="node9" class="node">
<title>model.post_process.input_3</title>
<ellipse fill="none" stroke="black" cx="381" cy="-556" rx="113.18" ry="18"/>
<text text-anchor="middle" x="381" y="-552.3" font-family="Times,serif" font-size="14.00">model.post_process.input_3</text>
</g>
<!-- model..32&#45;&gt;model.post_process.input_3 -->
<g id="edge8" class="edge">
<title>model..32&#45;&gt;model.post_process.input_3</title>
<path fill="none" stroke="black" d="M474.4,-612.88C457.33,-602.67 435.49,-589.61 417.23,-578.68"/>
<polygon fill="black" stroke="black" points="418.96,-575.64 408.58,-573.51 415.37,-581.64 418.96,-575.64"/>
</g>
<!-- model.post_process.input_4 -->
<g id="node10" class="node">
<title>model.post_process.input_4</title>
<ellipse fill="none" stroke="black" cx="1357" cy="-556" rx="113.18" ry="18"/>
<text text-anchor="middle" x="1357" y="-552.3" font-family="Times,serif" font-size="14.00">model.post_process.input_4</text>
</g>
<!-- model..33&#45;&gt;model.post_process.input_4 -->
<g id="edge9" class="edge">
<title>model..33&#45;&gt;model.post_process.input_4</title>
<path fill="none" stroke="black" d="M1204.69,-613C1214.98,-610.56 1225.26,-607.89 1235,-605 1260.78,-597.35 1288.74,-586.54 1311.38,-577.12"/>
<polygon fill="black" stroke="black" points="1312.88,-580.28 1320.74,-573.17 1310.17,-573.83 1312.88,-580.28"/>
</g>
<!-- model.post_process.input_5 -->
<g id="node11" class="node">
<title>model.post_process.input_5</title>
<ellipse fill="none" stroke="black" cx="1113" cy="-556" rx="113.18" ry="18"/>
<text text-anchor="middle" x="1113" y="-552.3" font-family="Times,serif" font-size="14.00">model.post_process.input_5</text>
</g>
<!-- model..33&#45;&gt;model.post_process.input_5 -->
<g id="edge10" class="edge">
<title>model..33&#45;&gt;model.post_process.input_5</title>
<path fill="none" stroke="black" d="M1113,-612.7C1113,-604.25 1113,-593.87 1113,-584.37"/>
<polygon fill="black" stroke="black" points="1116.5,-584.18 1113,-574.18 1109.5,-584.18 1116.5,-584.18"/>
</g>
<!-- model.post_process.input_6 -->
<g id="node12" class="node">
<title>model.post_process.input_6</title>
<ellipse fill="none" stroke="black" cx="869" cy="-556" rx="113.18" ry="18"/>
<text text-anchor="middle" x="869" y="-552.3" font-family="Times,serif" font-size="14.00">model.post_process.input_6</text>
</g>
<!-- model..33&#45;&gt;model.post_process.input_6 -->
<g id="edge11" class="edge">
<title>model..33&#45;&gt;model.post_process.input_6</title>
<path fill="none" stroke="black" d="M1021.31,-613C1011.02,-610.56 1000.74,-607.89 991,-605 965.22,-597.35 937.26,-586.54 914.62,-577.12"/>
<polygon fill="black" stroke="black" points="915.83,-573.83 905.26,-573.17 913.12,-580.28 915.83,-573.83"/>
</g>
<!-- model.post_process.boxes.5 -->
<g id="node14" class="node">
<title>model.post_process.boxes.5</title>
<path fill="none" stroke="black" d="M837.5,-502C837.5,-502 720.5,-502 720.5,-502 714.5,-502 708.5,-496 708.5,-490 708.5,-490 708.5,-461 708.5,-461 708.5,-455 714.5,-449 720.5,-449 720.5,-449 837.5,-449 837.5,-449 843.5,-449 849.5,-455 849.5,-461 849.5,-461 849.5,-490 849.5,-490 849.5,-496 843.5,-502 837.5,-502"/>
<text text-anchor="middle" x="779" y="-486.8" font-family="Times,serif" font-size="14.00">add where gt mul sub</text>
<text text-anchor="middle" x="779" y="-471.8" font-family="Times,serif" font-size="14.00">cat stack pow sigmoid</text>
<text text-anchor="middle" x="779" y="-456.8" font-family="Times,serif" font-size="14.00">reshape</text>
</g>
<!-- model.post_process.input_1&#45;&gt;model.post_process.boxes.5 -->
<g id="edge14" class="edge">
<title>model.post_process.input_1&#45;&gt;model.post_process.boxes.5</title>
<path fill="none" stroke="black" d="M216.99,-543.26C230.98,-541.38 245.4,-539.54 259,-538 440.76,-517.37 488.35,-530.73 669,-502 678.58,-500.48 688.57,-498.59 698.45,-496.53"/>
<polygon fill="black" stroke="black" points="699.23,-499.95 708.28,-494.43 697.77,-493.1 699.23,-499.95"/>
</g>
<!-- model.post_process.scores -->
<g id="node15" class="node">
<title>model.post_process.scores</title>
<path fill="none" stroke="black" d="M648.5,-494.5C648.5,-494.5 513.5,-494.5 513.5,-494.5 507.5,-494.5 501.5,-488.5 501.5,-482.5 501.5,-482.5 501.5,-468.5 501.5,-468.5 501.5,-462.5 507.5,-456.5 513.5,-456.5 513.5,-456.5 648.5,-456.5 648.5,-456.5 654.5,-456.5 660.5,-462.5 660.5,-468.5 660.5,-468.5 660.5,-482.5 660.5,-482.5 660.5,-488.5 654.5,-494.5 648.5,-494.5"/>
<text text-anchor="middle" x="581" y="-479.3" font-family="Times,serif" font-size="14.00">where gt mul cat sigmoid</text>
<text text-anchor="middle" x="581" y="-464.3" font-family="Times,serif" font-size="14.00">reshape</text>
</g>
<!-- model.post_process.input_1&#45;&gt;model.post_process.scores -->
<g id="edge21" class="edge">
<title>model.post_process.input_1&#45;&gt;model.post_process.scores</title>
<path fill="none" stroke="black" d="M218.54,-543.4C315,-529.59 465.85,-507.67 492,-502 498.54,-500.58 505.31,-498.95 512.06,-497.21"/>
<polygon fill="black" stroke="black" points="513.14,-500.54 521.91,-494.6 511.35,-493.78 513.14,-500.54"/>
</g>
<!-- model.post_process.labels -->
<g id="node16" class="node">
<title>model.post_process.labels</title>
<path fill="none" stroke="black" d="M471,-494.5C471,-494.5 335,-494.5 335,-494.5 329,-494.5 323,-488.5 323,-482.5 323,-482.5 323,-468.5 323,-468.5 323,-462.5 329,-456.5 335,-456.5 335,-456.5 471,-456.5 471,-456.5 477,-456.5 483,-462.5 483,-468.5 483,-468.5 483,-482.5 483,-482.5 483,-488.5 477,-494.5 471,-494.5"/>
<text text-anchor="middle" x="403" y="-479.3" font-family="Times,serif" font-size="14.00">where gt sigmoid reshape</text>
<text text-anchor="middle" x="403" y="-464.3" font-family="Times,serif" font-size="14.00">mul cat</text>
</g>
<!-- model.post_process.input_1&#45;&gt;model.post_process.labels -->
<g id="edge25" class="edge">
<title>model.post_process.input_1&#45;&gt;model.post_process.labels</title>
<path fill="none" stroke="black" d="M188.29,-539.86C229.08,-527.83 286.6,-510.85 331.85,-497.5"/>
<polygon fill="black" stroke="black" points="333,-500.81 341.6,-494.62 331.02,-494.09 333,-500.81"/>
</g>
<!-- input_model.post_process.output_0 -->
<g id="node18" class="node">
<title>input_model.post_process.output_0</title>
<path fill="none" stroke="black" d="M837.5,-341C837.5,-341 720.5,-341 720.5,-341 714.5,-341 708.5,-335 708.5,-329 708.5,-329 708.5,-300 708.5,-300 708.5,-294 714.5,-288 720.5,-288 720.5,-288 837.5,-288 837.5,-288 843.5,-288 849.5,-294 849.5,-300 849.5,-300 849.5,-329 849.5,-329 849.5,-335 843.5,-341 837.5,-341"/>
<text text-anchor="middle" x="779" y="-325.8" font-family="Times,serif" font-size="14.00">add where gt mul sub</text>
<text text-anchor="middle" x="779" y="-310.8" font-family="Times,serif" font-size="14.00">cat stack pow sigmoid</text>
<text text-anchor="middle" x="779" y="-295.8" font-family="Times,serif" font-size="14.00">reshape</text>
</g>
<!-- model.post_process.input_1&#45;&gt;input_model.post_process.output_0 -->
<g id="edge30" class="edge">
<title>model.post_process.input_1&#45;&gt;input_model.post_process.output_0</title>
<path fill="none" stroke="black" d="M151.53,-538C183.78,-501.55 265.5,-416.03 354,-377 414.05,-350.52 592.54,-331.37 698.14,-322"/>
<polygon fill="black" stroke="black" points="698.47,-325.48 708.13,-321.12 697.86,-318.51 698.47,-325.48"/>
</g>
<!-- model.post_process.input_2&#45;&gt;model.post_process.boxes.5 -->
<g id="edge16" class="edge">
<title>model.post_process.input_2&#45;&gt;model.post_process.boxes.5</title>
<path fill="none" stroke="black" d="M657.28,-538.54C675.42,-529.3 698.62,-517.47 719.89,-506.63"/>
<polygon fill="black" stroke="black" points="721.55,-509.71 728.87,-502.05 718.37,-503.48 721.55,-509.71"/>
</g>
<!-- model.post_process.input_2&#45;&gt;model.post_process.scores -->
<g id="edge20" class="edge">
<title>model.post_process.input_2&#45;&gt;model.post_process.scores</title>
<path fill="none" stroke="black" d="M615.45,-537.97C609.79,-527.86 602.48,-514.83 596.06,-503.36"/>
<polygon fill="black" stroke="black" points="599.08,-501.6 591.14,-494.59 592.98,-505.03 599.08,-501.6"/>
</g>
<!-- model.post_process.input_2&#45;&gt;model.post_process.labels -->
<g id="edge24" class="edge">
<title>model.post_process.input_2&#45;&gt;model.post_process.labels</title>
<path fill="none" stroke="black" d="M580.87,-539.4C547.33,-527.54 500.79,-511.08 463.73,-497.97"/>
<polygon fill="black" stroke="black" points="464.63,-494.58 454.04,-494.55 462.3,-501.18 464.63,-494.58"/>
</g>
<!-- model.post_process.input_2&#45;&gt;input_model.post_process.output_0 -->
<g id="edge32" class="edge">
<title>model.post_process.input_2&#45;&gt;input_model.post_process.output_0</title>
<path fill="none" stroke="black" d="M640.48,-537.95C649.31,-527.85 660.31,-514.6 669,-502 684.37,-479.72 685.38,-472.39 699,-449 718.67,-415.23 741.66,-377 757.93,-350.13"/>
<polygon fill="black" stroke="black" points="760.98,-351.84 763.17,-341.48 754.99,-348.22 760.98,-351.84"/>
</g>
<!-- model.post_process.input_3&#45;&gt;model.post_process.boxes.5 -->
<g id="edge15" class="edge">
<title>model.post_process.input_3&#45;&gt;model.post_process.boxes.5</title>
<path fill="none" stroke="black" d="M454.87,-542.37C513.16,-532.17 596.45,-517.08 669,-502 678.57,-500.01 688.59,-497.83 698.52,-495.6"/>
<polygon fill="black" stroke="black" points="699.41,-498.99 708.39,-493.37 697.87,-492.16 699.41,-498.99"/>
</g>
<!-- model.post_process.input_3&#45;&gt;model.post_process.scores -->
<g id="edge19" class="edge">
<title>model.post_process.input_3&#45;&gt;model.post_process.scores</title>
<path fill="none" stroke="black" d="M421.47,-539.11C451.39,-527.37 492.49,-511.24 525.48,-498.29"/>
<polygon fill="black" stroke="black" points="526.96,-501.47 534.99,-494.56 524.4,-494.95 526.96,-501.47"/>
</g>
<!-- model.post_process.input_3&#45;&gt;model.post_process.labels -->
<g id="edge23" class="edge">
<title>model.post_process.input_3&#45;&gt;model.post_process.labels</title>
<path fill="none" stroke="black" d="M385.77,-537.97C388.52,-528.16 392.04,-515.6 395.18,-504.39"/>
<polygon fill="black" stroke="black" points="398.6,-505.17 397.93,-494.59 391.86,-503.28 398.6,-505.17"/>
</g>
<!-- model.post_process.input_3&#45;&gt;input_model.post_process.output_0 -->
<g id="edge31" class="edge">
<title>model.post_process.input_3&#45;&gt;input_model.post_process.output_0</title>
<path fill="none" stroke="black" d="M349.53,-538.68C335.95,-529.82 321.5,-517.49 314,-502 303.74,-480.8 301.43,-468.92 314,-449 355.14,-383.8 576.42,-343.46 698.31,-325.85"/>
<polygon fill="black" stroke="black" points="698.94,-329.3 708.35,-324.42 697.96,-322.37 698.94,-329.3"/>
</g>
<!-- model.post_process.input_4&#45;&gt;model.post_process.boxes.5 -->
<g id="edge17" class="edge">
<title>model.post_process.input_4&#45;&gt;model.post_process.boxes.5</title>
<path fill="none" stroke="black" d="M1274.98,-543.52C1261.62,-541.66 1247.92,-539.77 1235,-538 1103.6,-519.98 950.84,-499.47 859.7,-487.27"/>
<polygon fill="black" stroke="black" points="860.08,-483.8 849.71,-485.94 859.16,-490.73 860.08,-483.8"/>
</g>
<!-- model.post_process.input_4&#45;&gt;input_model.post_process.output_0 -->
<g id="edge33" class="edge">
<title>model.post_process.input_4&#45;&gt;input_model.post_process.output_0</title>
<path fill="none" stroke="black" d="M1318.18,-538.91C1222.34,-499.2 973.38,-396.04 850.18,-344.99"/>
<polygon fill="black" stroke="black" points="851.39,-341.71 840.81,-341.11 848.71,-348.17 851.39,-341.71"/>
</g>
<!-- model.post_process.input_5&#45;&gt;model.post_process.boxes.5 -->
<g id="edge12" class="edge">
<title>model.post_process.input_5&#45;&gt;model.post_process.boxes.5</title>
<path fill="none" stroke="black" d="M1052.52,-540.78C998.58,-528.11 919.21,-509.45 859.84,-495.5"/>
<polygon fill="black" stroke="black" points="860.28,-492.01 849.75,-493.13 858.68,-498.82 860.28,-492.01"/>
</g>
<!-- model.post_process.input_5&#45;&gt;input_model.post_process.output_0 -->
<g id="edge27" class="edge">
<title>model.post_process.input_5&#45;&gt;input_model.post_process.output_0</title>
<path fill="none" stroke="black" d="M1089.78,-538.35C1034.62,-498.8 894.99,-398.67 823.17,-347.17"/>
<polygon fill="black" stroke="black" points="824.92,-344.12 814.76,-341.14 820.84,-349.81 824.92,-344.12"/>
</g>
<!-- model.post_process.input_6&#45;&gt;model.post_process.boxes.5 -->
<g id="edge13" class="edge">
<title>model.post_process.input_6&#45;&gt;model.post_process.boxes.5</title>
<path fill="none" stroke="black" d="M849.47,-537.97C839.73,-529.47 827.6,-518.89 816.18,-508.93"/>
<polygon fill="black" stroke="black" points="818.25,-506.09 808.41,-502.16 813.65,-511.37 818.25,-506.09"/>
</g>
<!-- model.post_process.input_6&#45;&gt;input_model.post_process.output_0 -->
<g id="edge28" class="edge">
<title>model.post_process.input_6&#45;&gt;input_model.post_process.output_0</title>
<path fill="none" stroke="black" d="M869.45,-537.64C869.49,-516.25 867.92,-479.04 858,-449 846.02,-412.7 823.03,-375.61 804.93,-349.76"/>
<polygon fill="black" stroke="black" points="807.66,-347.56 799,-341.45 801.96,-351.62 807.66,-347.56"/>
</g>
<!-- model.post_process..keep.1 -->
<g id="node13" class="node">
<title>model.post_process..keep.1</title>
<polygon fill="none" stroke="black" points="670,-413 474,-413 474,-377 670,-377 670,-413"/>
<text text-anchor="middle" x="572" y="-391.3" font-family="Times,serif" font-size="14.00">_batched_nms_coordinate_trick</text>
</g>
<!-- model.post_process..keep.1&#45;&gt;input_model.post_process.output_0 -->
<g id="edge29" class="edge">
<title>model.post_process..keep.1&#45;&gt;input_model.post_process.output_0</title>
<path fill="none" stroke="black" d="M616.92,-376.97C641.81,-367.53 673.44,-355.53 702.14,-344.65"/>
<polygon fill="black" stroke="black" points="703.64,-347.82 711.75,-341 701.15,-341.28 703.64,-347.82"/>
</g>
<!-- model.post_process.boxes.5&#45;&gt;model.post_process..keep.1 -->
<g id="edge18" class="edge">
<title>model.post_process.boxes.5&#45;&gt;model.post_process..keep.1</title>
<path fill="none" stroke="black" d="M711.51,-448.9C683.87,-438.42 652.32,-426.46 626.23,-416.56"/>
<polygon fill="black" stroke="black" points="627.47,-413.29 616.88,-413.02 624.99,-419.84 627.47,-413.29"/>
</g>
<!-- model.post_process.scores&#45;&gt;model.post_process..keep.1 -->
<g id="edge22" class="edge">
<title>model.post_process.scores&#45;&gt;model.post_process..keep.1</title>
<path fill="none" stroke="black" d="M578.91,-456.29C577.78,-446.41 576.36,-433.99 575.1,-423"/>
<polygon fill="black" stroke="black" points="578.57,-422.57 573.95,-413.03 571.61,-423.37 578.57,-422.57"/>
</g>
<!-- model.post_process.labels&#45;&gt;model.post_process..keep.1 -->
<g id="edge26" class="edge">
<title>model.post_process.labels&#45;&gt;model.post_process..keep.1</title>
<path fill="none" stroke="black" d="M441.77,-456.49C466.77,-444.88 499.4,-429.72 525.75,-417.48"/>
<polygon fill="black" stroke="black" points="527.55,-420.51 535.15,-413.12 524.6,-414.16 527.55,-420.51"/>
</g>
<!-- model.post_process.output_0 -->
<g id="node17" class="node">
<title>model.post_process.output_0</title>
<ellipse fill="none" stroke="black" cx="836" cy="-234" rx="117.78" ry="18"/>
<text text-anchor="middle" x="836" y="-230.3" font-family="Times,serif" font-size="14.00">model.post_process.output_0</text>
</g>
<!-- model.output_0 -->
<g id="node19" class="node">
<title>model.output_0</title>
<ellipse fill="none" stroke="black" cx="1040" cy="-162" rx="68.49" ry="18"/>
<text text-anchor="middle" x="1040" y="-158.3" font-family="Times,serif" font-size="14.00">model.output_0</text>
</g>
<!-- model.post_process.output_0&#45;&gt;model.output_0 -->
<g id="edge35" class="edge">
<title>model.post_process.output_0&#45;&gt;model.output_0</title>
<path fill="none" stroke="black" d="M881.53,-217.38C913.91,-206.27 957.39,-191.35 990.61,-179.95"/>
<polygon fill="black" stroke="black" points="991.8,-183.24 1000.13,-176.68 989.53,-176.62 991.8,-183.24"/>
</g>
<!-- input_model.post_process.output_0&#45;&gt;model.post_process.output_0 -->
<g id="edge34" class="edge">
<title>input_model.post_process.output_0&#45;&gt;model.post_process.output_0</title>
<path fill="none" stroke="black" d="M797.66,-287.8C804,-279.08 811.06,-269.34 817.39,-260.63"/>
<polygon fill="black" stroke="black" points="820.37,-262.48 823.42,-252.33 814.71,-258.37 820.37,-262.48"/>
</g>
<!-- model.output_0&#45;&gt;input_output_0 -->
<g id="edge37" class="edge">
<title>model.output_0&#45;&gt;input_output_0</title>
<path fill="none" stroke="black" d="M1095.74,-151.41C1173.25,-138.08 1312.8,-114.08 1390.64,-100.69"/>
<polygon fill="black" stroke="black" points="1391.48,-104.1 1400.74,-98.96 1390.29,-97.2 1391.48,-104.1"/>
</g>
<!-- output_0 -->
<g id="node20" class="node">
<title>output_0</title>
<ellipse fill="none" stroke="black" cx="1447" cy="-18" rx="42.79" ry="18"/>
<text text-anchor="middle" x="1447" y="-14.3" font-family="Times,serif" font-size="14.00">output_0</text>
</g>
<!-- input_output_0&#45;&gt;output_0 -->
<g id="edge38" class="edge">
<title>input_output_0&#45;&gt;output_0</title>
<path fill="none" stroke="black" d="M1447,-71.7C1447,-63.98 1447,-54.71 1447,-46.11"/>
<polygon fill="black" stroke="black" points="1450.5,-46.1 1447,-36.1 1443.5,-46.1 1450.5,-46.1"/>
</g>
</g>
</svg>
