<?xml version="1.0" standalone="no"?>
<!DOCTYPE svg PUBLIC "-//W3C//DTD SVG 20010904//EN"
 "http://www.w3.org/TR/2001/REC-SVG-20010904/DTD/svg10.dtd">
<svg version="1.0" xmlns="http://www.w3.org/2000/svg"
 width="2176.000000pt" height="2176.000000pt" viewBox="0 0 2176.000000 2176.000000"
 preserveAspectRatio="xMidYMid meet">
<metadata>
Created by potrace 1.14, written by Peter Selinger 2001-2017
</metadata>
<g transform="translate(0.000000,2176.000000) scale(0.100000,-0.100000)"
fill="#000000" stroke="none">
<path d="M11157 19014 c-1 -1 -92 -5 -202 -9 -110 -3 -222 -8 -250 -10 -27 -2
-97 -6 -155 -9 -58 -4 -132 -9 -165 -11 -33 -2 -94 -7 -135 -10 -41 -3 -95 -8
-120 -10 -25 -2 -72 -6 -105 -9 -91 -8 -218 -21 -305 -30 -25 -3 -70 -8 -100
-11 -30 -3 -66 -7 -80 -10 -14 -2 -52 -7 -85 -10 -66 -7 -85 -9 -235 -30 -14
-2 -47 -6 -75 -10 -27 -3 -77 -10 -110 -15 -89 -14 -126 -19 -165 -24 -19 -2
-120 -18 -225 -35 -104 -18 -203 -34 -220 -36 -16 -3 -52 -10 -80 -15 -27 -5
-63 -12 -80 -15 -16 -3 -41 -7 -55 -10 -14 -3 -41 -8 -60 -11 -19 -3 -159 -31
-310 -61 -151 -30 -286 -57 -300 -60 -13 -2 -141 -31 -285 -64 -143 -33 -269
-62 -281 -64 -28 -6 -513 -130 -584 -149 -30 -8 -91 -24 -135 -36 -597 -158
-1452 -429 -2110 -668 -333 -121 -901 -338 -1010 -387 -16 -7 -104 -43 -195
-80 -91 -37 -187 -77 -215 -90 -27 -12 -90 -39 -140 -60 -149 -64 -433 -190
-650 -290 -426 -196 -882 -423 -953 -476 -80 -59 -190 -174 -244 -255 -52 -79
-120 -219 -133 -274 -1 -3 -9 -30 -18 -60 -9 -30 -19 -73 -22 -95 -3 -23 -8
-52 -11 -65 -7 -32 -7 -234 0 -280 30 -213 101 -374 235 -533 135 -162 220
-231 376 -308 55 -27 145 -61 200 -76 87 -23 120 -26 260 -27 231 -1 297 17
595 162 102 49 237 113 300 142 63 29 138 63 165 75 28 13 71 32 96 44 505
225 954 413 1359 569 113 43 214 83 225 87 11 5 22 9 25 10 3 0 32 11 65 24
63 24 156 58 370 135 72 26 153 55 180 66 184 69 1012 340 1265 414 47 13 177
51 290 85 370 108 1149 315 1157 307 3 -3 -7 -77 -22 -156 -15 -85 -46 -263
-50 -287 -2 -15 -11 -68 -20 -118 -9 -49 -21 -117 -26 -150 -6 -33 -12 -71
-15 -85 -12 -69 -44 -249 -49 -280 -3 -19 -12 -71 -20 -115 -8 -44 -17 -100
-20 -125 -4 -24 -8 -47 -10 -50 -2 -4 -7 -29 -11 -56 -3 -27 -8 -58 -10 -69
-2 -11 -9 -47 -14 -80 -6 -33 -12 -71 -15 -85 -11 -60 -36 -208 -41 -240 -3
-19 -9 -57 -14 -85 -11 -60 -14 -75 -40 -229 -11 -65 -23 -133 -26 -150 -2
-17 -7 -44 -10 -61 -3 -16 -16 -95 -30 -175 -13 -80 -26 -156 -28 -170 -12
-66 -26 -149 -32 -184 -3 -21 -8 -48 -10 -60 -4 -20 -31 -174 -39 -226 -2 -14
-18 -106 -35 -205 -17 -99 -33 -196 -36 -215 -6 -37 -11 -69 -18 -110 -8 -41
-74 -432 -81 -475 -4 -22 -9 -53 -11 -70 -3 -16 -9 -52 -14 -80 -5 -27 -12
-65 -15 -82 -3 -18 -7 -48 -10 -65 -3 -18 -10 -55 -15 -83 -5 -27 -11 -63 -14
-80 -4 -26 -17 -108 -32 -200 -3 -16 -11 -66 -19 -110 -8 -44 -16 -96 -19
-115 -3 -19 -8 -46 -11 -60 -2 -13 -7 -42 -10 -65 -3 -22 -10 -62 -15 -90 -5
-27 -12 -66 -15 -85 -3 -19 -10 -62 -16 -95 -17 -93 -46 -266 -54 -320 -2 -16
-14 -84 -25 -150 -12 -66 -23 -131 -25 -145 -2 -14 -11 -68 -20 -120 -9 -52
-18 -106 -20 -120 -2 -14 -16 -95 -30 -180 -14 -85 -28 -168 -31 -185 -5 -32
-20 -121 -29 -170 -6 -37 -74 -449 -81 -490 -2 -16 -9 -52 -14 -80 -5 -27 -12
-68 -16 -90 -3 -22 -12 -76 -19 -120 -8 -44 -17 -98 -20 -120 -4 -22 -8 -47
-10 -55 -3 -8 -7 -33 -10 -55 -5 -38 -17 -114 -20 -125 -3 -11 -15 -87 -21
-124 -3 -21 -8 -48 -10 -60 -4 -19 -65 -382 -78 -466 -3 -19 -8 -46 -10 -60
-7 -34 -67 -387 -72 -425 -3 -16 -9 -55 -14 -85 -5 -30 -12 -72 -16 -94 -3
-21 -8 -48 -10 -60 -2 -11 -7 -37 -10 -56 -3 -19 -12 -71 -19 -115 -8 -44 -17
-98 -21 -120 -7 -50 -12 -83 -19 -115 -6 -27 -9 -50 -20 -120 -4 -25 -9 -54
-11 -65 -2 -10 -6 -35 -9 -55 -3 -20 -7 -47 -10 -60 -11 -55 -25 -137 -29
-170 -5 -36 -55 -331 -81 -475 -7 -44 -16 -98 -20 -120 -10 -72 -15 -99 -25
-145 -5 -25 -11 -63 -14 -85 -3 -22 -7 -47 -10 -55 -3 -8 -7 -33 -10 -55 -5
-38 -30 -187 -61 -360 -7 -44 -16 -93 -18 -110 -3 -16 -13 -73 -22 -125 -9
-52 -19 -107 -21 -123 -5 -36 -9 -56 -38 -227 -14 -80 -34 -181 -45 -225 -29
-116 -41 -298 -26 -410 11 -84 15 -102 40 -188 49 -171 109 -288 213 -419 85
-107 183 -188 312 -260 46 -26 224 -94 270 -104 131 -27 177 -32 280 -30 277
8 533 120 741 326 189 187 289 388 324 649 4 25 13 84 22 131 8 46 16 96 18
110 2 14 10 63 19 110 8 47 18 103 21 125 3 22 7 47 10 55 2 8 6 31 9 50 3 19
15 89 26 155 12 66 23 131 25 145 2 14 13 79 25 145 11 66 23 134 25 150 3 17
7 41 10 55 6 31 23 125 29 165 3 17 19 113 36 215 17 102 33 199 36 215 3 17
7 37 9 45 2 8 6 33 10 55 3 22 17 105 31 185 14 80 27 159 30 175 2 17 11 66
19 110 8 44 17 100 20 125 3 25 8 52 10 60 2 8 7 31 10 50 3 19 7 46 10 60 3
14 7 41 10 60 3 19 12 71 20 115 8 44 16 96 19 115 2 19 7 46 10 60 3 14 7 39
10 55 2 17 16 100 31 185 14 85 28 169 31 185 2 17 6 41 9 55 3 14 7 41 10 60
7 42 16 97 22 125 2 11 6 36 8 55 3 19 8 46 11 60 3 14 8 41 10 60 3 19 11 71
19 115 8 44 17 96 20 115 3 19 7 46 10 60 3 14 7 41 11 60 3 19 32 195 65 390
33 195 62 368 65 385 2 16 9 55 14 85 5 30 12 69 14 85 10 63 17 102 26 155 5
30 12 69 14 85 14 80 68 403 72 425 2 14 7 41 10 60 3 19 12 71 19 115 16 90
22 122 30 180 4 22 16 92 27 155 11 63 21 126 23 140 2 14 6 39 9 55 11 66 18
106 42 250 14 83 27 162 29 178 3 15 7 42 10 60 3 17 12 68 20 112 7 44 16 96
19 115 3 19 8 46 10 60 12 62 26 149 31 190 3 25 8 52 11 61 3 10 6 30 8 45 2
16 9 58 16 94 7 36 14 79 16 95 3 26 15 99 19 115 1 3 5 30 10 60 5 30 9 57
10 60 0 3 4 26 8 51 4 25 10 57 12 70 2 13 14 80 25 149 12 69 23 137 25 152
13 73 94 558 99 588 9 52 15 91 22 130 8 38 9 45 18 105 8 53 15 95 21 121 2
11 7 42 10 69 4 27 8 52 10 55 2 4 7 29 10 56 3 27 10 72 15 99 8 41 49 277
65 375 2 14 13 79 24 145 11 66 23 138 26 160 4 22 8 47 10 55 2 8 7 33 10 55
3 23 8 52 10 65 3 14 10 54 16 90 18 113 19 124 31 185 6 33 12 69 13 80 2 11
8 47 14 80 6 33 13 76 16 95 3 19 7 46 10 60 3 14 7 41 10 60 3 19 8 46 10 60
3 14 7 39 10 55 2 17 11 71 20 120 9 50 18 104 21 120 5 35 22 130 29 164 2
12 7 44 10 69 3 26 7 54 9 62 3 8 7 31 10 50 3 19 8 46 10 60 3 14 7 41 10 60
3 19 8 46 11 60 2 13 7 40 10 60 3 20 8 47 10 60 7 33 25 148 30 182 2 15 6
35 9 45 3 10 8 36 11 58 3 23 7 52 10 65 3 13 7 42 10 65 3 22 8 47 10 55 2 8
6 31 9 50 3 19 8 46 11 60 2 13 7 42 10 65 4 22 9 54 12 70 3 17 17 99 32 184
26 149 28 154 51 157 14 1 66 5 115 9 50 4 107 8 127 10 69 7 329 25 448 30
329 15 466 19 805 19 215 0 460 -4 545 -8 85 -4 182 -9 215 -11 132 -6 375
-28 580 -51 165 -18 182 -20 345 -45 74 -12 144 -23 155 -24 40 -6 151 -25
175 -30 113 -22 239 -48 255 -52 36 -9 89 -21 140 -32 77 -16 86 -18 148 -35
31 -9 83 -23 115 -31 454 -123 895 -289 1292 -487 592 -295 846 -489 921 -705
28 -79 24 -188 -10 -273 -25 -61 -30 -66 -101 -109 -129 -77 -546 -284 -765
-381 -344 -152 -671 -281 -1375 -544 -559 -208 -977 -372 -1172 -460 -29 -13
-107 -47 -173 -76 -177 -77 -528 -254 -705 -355 -85 -49 -164 -93 -175 -100
-103 -58 -390 -253 -500 -339 -126 -98 -152 -122 -310 -280 -286 -286 -481
-588 -591 -913 -14 -43 -27 -85 -29 -93 -2 -8 -10 -42 -18 -75 -9 -33 -18 -78
-22 -100 -3 -23 -7 -52 -10 -65 -6 -29 -18 -182 -18 -225 0 -75 15 -259 29
-345 97 -617 440 -1161 1099 -1746 145 -128 303 -253 629 -497 38 -28 98 -75
111 -85 44 -35 790 -597 838 -631 34 -24 64 -46 67 -50 3 -3 41 -33 85 -66 44
-33 82 -62 85 -65 4 -5 1101 -826 1325 -992 49 -37 101 -76 115 -87 14 -10
203 -150 420 -310 217 -160 400 -294 405 -299 6 -4 127 -93 270 -196 143 -104
283 -206 310 -226 69 -51 151 -110 210 -152 28 -19 185 -131 350 -249 165
-118 380 -271 478 -339 97 -69 226 -159 285 -200 59 -42 150 -105 202 -141 52
-36 131 -90 175 -120 312 -215 545 -373 920 -622 237 -157 449 -300 473 -317
97 -71 272 -148 377 -166 22 -4 103 -8 181 -9 141 -3 188 4 314 42 30 9 60 18
66 19 32 6 178 82 253 131 101 67 260 222 321 312 60 90 125 232 151 331 23
89 32 279 17 385 -21 157 -113 371 -224 517 -154 207 -357 366 -879 693 -226
141 -277 176 -450 303 -114 84 -101 75 -260 187 -66 46 -124 88 -130 92 -5 5
-111 80 -235 168 -262 185 -437 309 -465 329 -11 8 -184 131 -385 274 -475
336 -1133 807 -1290 921 -36 26 -231 168 -435 316 -665 483 -1400 1034 -1845
1384 -58 45 -152 119 -210 164 -197 153 -799 638 -855 689 -97 89 -169 212
-199 340 -23 99 -15 266 17 356 67 190 178 308 377 404 152 74 434 199 630
281 225 93 684 275 775 306 112 39 1162 439 1210 461 11 5 109 46 219 90 109
45 227 95 262 111 36 16 66 29 68 29 2 0 34 14 72 32 38 17 71 32 74 33 7 2
147 68 300 143 258 127 503 262 680 375 97 62 307 216 370 271 170 150 253
236 414 426 38 46 173 254 213 330 64 121 136 306 158 409 3 11 7 31 10 44 13
61 26 138 32 197 13 127 4 382 -17 515 -6 39 -13 82 -15 98 -2 15 -6 31 -9 36
-3 4 -8 23 -11 42 -13 72 -88 279 -144 394 -228 466 -645 906 -1291 1361 -83
59 -340 229 -410 271 -75 46 -248 147 -300 176 -30 17 -85 47 -121 67 -66 38
-413 209 -499 248 -157 70 -473 201 -500 207 -8 2 -49 17 -90 33 -189 73 -592
202 -810 258 -52 14 -135 36 -185 49 -87 23 -400 94 -440 100 -11 2 -66 13
-123 24 -114 23 -103 21 -302 55 -80 14 -163 27 -185 30 -22 3 -69 9 -105 15
-36 5 -92 13 -125 16 -33 4 -67 8 -75 10 -8 2 -42 7 -75 10 -33 3 -76 8 -95
10 -80 10 -150 17 -292 30 -141 12 -169 15 -273 20 -60 3 -135 8 -165 10 -132
12 -354 17 -763 19 -241 1 -439 1 -440 0z"/>
</g>
</svg>
